<svg xmlns="http://www.w3.org/2000/svg" style="display:none">
	<symbol id="icon-search" viewBox="0 0 24 24" fill="none" stroke="currentColor" stroke-width="1.8" stroke-linecap="round" stroke-linejoin="round">
		<circle cx="11" cy="11" r="6.5"/>
		<path d="M20 20l-4.2-4.2"/>
	</symbol>

	<symbol id="icon-filter" viewBox="0 0 24 24" fill="none" stroke="currentColor" stroke-width="1.8" stroke-linecap="round" stroke-linejoin="round">
		<path d="M4 5h16l-6.3 7.2v5.6l-3.4 1.7v-7.3z"/>
	</symbol>

	<symbol id="icon-globe" viewBox="0 0 24 24" fill="none" stroke="currentColor" stroke-width="1.8" stroke-linecap="round" stroke-linejoin="round">
		<circle cx="12" cy="12" r="9"/>
		<path d="M3 12h18"/>
		<path d="M12 3c2.8 2.6 4.3 5.7 4.3 9s-1.5 6.4-4.3 9c-2.8-2.6-4.3-5.7-4.3-9s1.5-6.4 4.3-9z"/>
	</symbol>

	<symbol id="icon-plus" viewBox="0 0 24 24" fill="none" stroke="currentColor" stroke-width="1.8" stroke-linecap="round" stroke-linejoin="round">
		<path d="M12 5v14M5 12h14"/>
	</symbol>

	<symbol id="icon-info" viewBox="0 0 24 24" fill="none" stroke="currentColor" stroke-width="1.8" stroke-linecap="round" stroke-linejoin="round">
		<circle cx="12" cy="12" r="9"/>
		<path d="M12 11v5.5"/>
		<circle cx="12" cy="7.8" r="0.9" fill="currentColor" stroke="none"/>
	</symbol>

	<symbol id="icon-user" viewBox="0 0 24 24" fill="none" stroke="currentColor" stroke-width="1.8" stroke-linecap="round" stroke-linejoin="round">
		<circle cx="12" cy="8.2" r="3.4"/>
		<path d="M5 19.5c0-4 3.1-6.5 7-6.5s7 2.5 7 6.5"/>
	</symbol>

	<symbol id="icon-users" viewBox="0 0 24 24" fill="none" stroke="currentColor" stroke-width="1.8" stroke-linecap="round" stroke-linejoin="round">
		<circle cx="9" cy="8.2" r="3"/>
		<path d="M3.3 19.5c0-3.6 2.5-6 5.7-6s5.7 2.4 5.7 6"/>
		<circle cx="16.6" cy="9.4" r="2.3"/>
		<path d="M14.4 13.6c2.5.4 4.3 2.4 4.6 5.6"/>
	</symbol>

	<symbol id="icon-github" viewBox="0 0 98 96" fill="currentColor">
		<path fill-rule="evenodd" clip-rule="evenodd" d="M48.854 0C21.839 0 0 22 0 49.217c0 21.756 13.993 40.172 33.405 46.69 2.427.49 3.316-1.059 3.316-2.362 0-1.141-.08-5.052-.08-9.127-13.59 2.934-16.42-5.867-16.42-5.867-2.184-5.704-5.42-7.17-5.42-7.17-4.448-3.015.324-3.015.324-3.015 4.934.326 7.523 5.052 7.523 5.052 4.367 7.496 11.404 5.378 14.235 4.074.404-3.178 1.699-5.378 3.074-6.6-10.839-1.141-22.243-5.378-22.243-24.283 0-5.378 1.94-9.778 5.014-13.2-.485-1.222-2.184-6.275.486-13.038 0 0 4.125-1.304 13.426 5.052a46.97 46.97 0 0 1 12.214-1.63c4.125 0 8.33.571 12.213 1.63 9.302-6.356 13.427-5.052 13.427-5.052 2.67 6.763.97 11.816.485 13.038 3.155 3.422 5.015 7.822 5.015 13.2 0 18.905-11.404 23.06-22.324 24.283 1.78 1.548 3.316 4.481 3.316 9.126 0 6.6-.08 11.897-.08 13.526 0 1.304.89 2.853 3.316 2.364 19.412-6.52 33.405-24.935 33.405-46.691C97.707 22 75.788 0 48.854 0z"/>
	</symbol>

	<symbol id="icon-settings" viewBox="0 0 24 24" fill="none" stroke="currentColor" stroke-width="1.8" stroke-linecap="round" stroke-linejoin="round">
		<line x1="4" y1="6" x2="20" y2="6"/>
		<circle cx="14" cy="6" r="2"/>
		<line x1="4" y1="12" x2="20" y2="12"/>
		<circle cx="8" cy="12" r="2"/>
		<line x1="4" y1="18" x2="20" y2="18"/>
		<circle cx="16" cy="18" r="2"/>
	</symbol>

	<symbol id="icon-layers" viewBox="0 0 24 24" fill="none" stroke="currentColor" stroke-width="1.8" stroke-linecap="round" stroke-linejoin="round">
		<polygon points="12 2 22 8.5 12 15 2 8.5 12 2"/>
		<polyline points="2 15.5 12 22 22 15.5"/>
		<polyline points="2 12 12 18.5 22 12"/>
	</symbol>

	<symbol id="icon-chart" viewBox="0 0 24 24" fill="none" stroke="currentColor" stroke-width="1.8" stroke-linecap="round" stroke-linejoin="round">
		<line x1="6" y1="19" x2="6" y2="15"/>
		<line x1="12" y1="19" x2="12" y2="5"/>
		<line x1="18" y1="19" x2="18" y2="10"/>
		<line x1="4" y1="19" x2="20" y2="19"/>
	</symbol>

	<symbol id="icon-copy" viewBox="0 0 24 24" fill="none" stroke="currentColor" stroke-width="1.8" stroke-linecap="round" stroke-linejoin="round">
		<rect x="8" y="8" width="12" height="12" rx="2"/>
		<path d="M16 8V6a2 2 0 0 0-2-2H6a2 2 0 0 0-2 2v8a2 2 0 0 0 2 2h2"/>
	</symbol>

	<symbol id="icon-check" viewBox="0 0 24 24" fill="none" stroke="currentColor" stroke-width="2.2" stroke-linecap="round" stroke-linejoin="round">
		<path d="M4.5 12.5l5 5 10-10"/>
	</symbol>
</svg>
