<svg xmlns="http://www.w3.org/2000/svg" style="display:none">
	<!-- Full badge icons (colored circle + glyph) - used for map markers -->
	<symbol id="client" viewBox="0 0 512 512">
		<path fill-rule="evenodd" fill="#667b89" d="m256 512c-141.6 0-256-114.4-256-256 0-141.6 114.4-256 256-256 141.6 0 256 114.4 256 256 0 141.6-114.4 256-256 256z"/>
		<path fill="#fff" d="m256.1 256.1c34.5 0 62.4-27.9 62.4-62.4 0-34.5-27.9-62.4-62.4-62.4-34.5 0-62.4 27.9-62.4 62.4 0 34.5 27.9 62.4 62.4 62.4zm0 31.2c-41.6 0-124.8 20.9-124.8 62.4v31.1h249.5v-31.1c0-41.5-83.1-62.4-124.7-62.4z"/>
	</symbol>

	<symbol id="repeater" viewBox="0 0 512 512">
		<path fill-rule="evenodd" fill="#667b89" d="m256 512c-141.6 0-256-114.4-256-256 0-141.6 114.4-256 256-256 141.6 0 256 114.4 256 256 0 141.6-114.4 256-256 256z"/>
		<path fill-rule="evenodd" fill="#fff" d="m196.7 284l15-15c-12.5-12.5-18.7-28.7-18.7-43.6 0-16.2 6.2-32.4 18.7-43.7l-15-14.9c-16.2 16.2-24.9 37.4-24.9 58.6 0 21.2 8.7 42.4 24.9 58.6zm147.1-147.1l-15 14.9c19.9 20 29.9 47.4 29.9 73.6 0 26.2-10 53.6-29.9 73.5l15 15c24.9-24.9 36.1-56.1 36.1-88.5 0-32.4-12.5-63.6-36.1-88.5zm-162 14.9l-15-14.9c-23.7 24.9-36.1 56.1-36.1 88.5 0 32.4 12.4 63.6 36.1 88.5l15-15c-20-19.9-29.9-47.3-29.9-73.5 0-26.2 9.9-53.6 29.9-73.6zm132 132.2c16.2-16.2 25-37.4 25-58.6-1.3-21.2-8.8-42.4-25-58.6l-14.9 14.9c12.5 12.5 18.7 28.7 18.7 43.7 0 16.2-6.2 32.4-18.7 43.6zm-27.4-58.6c0-17.2-14-31.1-31.2-31.1-17.2 0-31.1 13.9-31.1 31.1 0 9.5 4.2 17.7 10.8 23.5l-42 126.1h24.9l8.4-24.9h58.2l8.2 24.9h24.9l-42-126.1c6.6-5.8 10.9-14 10.9-23.5zm-52 99.7l20.8-62.3 20.8 62.3z"/>
	</symbol>

	<symbol id="room-server" viewBox="0 0 512 512">
		<path fill-rule="evenodd" fill="#667b89" d="m256 512c-141.6 0-256-114.4-256-256 0-141.6 114.4-256 256-256 141.6 0 256 114.4 256 256 0 141.6-114.4 256-256 256z"/>
		<path fill="#fff" d="m256 265.4c20.4 0 38.4 4.9 53 11.2 13.5 6 22 19.5 22 34.2v20.2h-150v-20.1c0-14.8 8.5-28.3 22-34.1 14.6-6.5 32.6-11.4 53-11.4zm-100 3.1c13.8 0 25-11.2 25-25 0-13.7-11.2-25-25-25-13.7 0-25 11.3-25 25 0 13.8 11.3 25 25 25zm14.1 13.8c-4.6-0.8-9.2-1.3-14.1-1.3-12.4 0-24.1 2.6-34.7 7.3-9.3 4-15.3 13-15.3 23.1v19.6h56.3v-20.1c0-10.4 2.8-20.1 7.8-28.6zm185.9-13.8c13.8 0 25-11.2 25-25 0-13.8-11.2-25-25-25-13.8 0-25 11.2-25 25 0 13.8 11.2 25 25 25zm50 42.9c0-10.1-6-19.1-15.2-23.1-10.7-4.7-22.4-7.3-34.8-7.3-4.9 0-9.5 0.5-14.1 1.3 5 8.5 7.8 18.2 7.8 28.6v20.1h56.3zm-150-130.4c20.8 0 37.5 16.8 37.5 37.5 0 20.8-16.8 37.5-37.5 37.5-20.7 0-37.5-16.7-37.5-37.5 0-20.7 16.8-37.5 37.5-37.5z"/>
	</symbol>

	<symbol id="sensor" viewBox="0 0 512 512">
		<path fill-rule="evenodd" fill="#667b89" d="m256 512c-141.6 0-256-114.4-256-256 0-141.6 114.4-256 256-256 141.6 0 256 114.4 256 256 0 141.6-114.4 256-256 256z"/>
		<path fill="#fff" d="m381 242.1v-27.8h-27.8v-27.7c0-15.3-12.5-27.8-27.8-27.8h-27.7v-27.8h-27.8v27.8h-27.8v-27.8h-27.8v27.8h-27.7c-15.3 0-27.8 12.5-27.8 27.8v27.7h-27.8v27.8h27.8v27.8h-27.8v27.8h27.8v27.7c0 15.3 12.5 27.8 27.8 27.8h27.7v27.8h27.8v-27.8h27.8v27.8h27.8v-27.8h27.7c15.3 0 27.8-12.5 27.8-27.8v-27.7h27.8v-27.8h-27.8v-27.8zm-55.5 83.3h-138.9v-138.8h138.9zm-27.8-111.2h-83.3v83.4h83.3zm-27.8 55.5h-27.8v-27.7h27.8z"/>
	</symbol>

	<!-- Plain glyphs, no background circle - used in legend/navbar/lists -->
	<symbol id="client-plain" viewBox="110 110 292 292">
		<path fill="currentColor" d="m256.1 256.1c34.5 0 62.4-27.9 62.4-62.4 0-34.5-27.9-62.4-62.4-62.4-34.5 0-62.4 27.9-62.4 62.4 0 34.5 27.9 62.4 62.4 62.4zm0 31.2c-41.6 0-124.8 20.9-124.8 62.4v31.1h249.5v-31.1c0-41.5-83.1-62.4-124.7-62.4z"/>
	</symbol>

	<symbol id="repeater-plain" viewBox="110 110 292 292">
		<path fill-rule="evenodd" fill="currentColor" d="m196.7 284l15-15c-12.5-12.5-18.7-28.7-18.7-43.6 0-16.2 6.2-32.4 18.7-43.7l-15-14.9c-16.2 16.2-24.9 37.4-24.9 58.6 0 21.2 8.7 42.4 24.9 58.6zm147.1-147.1l-15 14.9c19.9 20 29.9 47.4 29.9 73.6 0 26.2-10 53.6-29.9 73.5l15 15c24.9-24.9 36.1-56.1 36.1-88.5 0-32.4-12.5-63.6-36.1-88.5zm-162 14.9l-15-14.9c-23.7 24.9-36.1 56.1-36.1 88.5 0 32.4 12.4 63.6 36.1 88.5l15-15c-20-19.9-29.9-47.3-29.9-73.5 0-26.2 9.9-53.6 29.9-73.6zm132 132.2c16.2-16.2 25-37.4 25-58.6-1.3-21.2-8.8-42.4-25-58.6l-14.9 14.9c12.5 12.5 18.7 28.7 18.7 43.7 0 16.2-6.2 32.4-18.7 43.6zm-27.4-58.6c0-17.2-14-31.1-31.2-31.1-17.2 0-31.1 13.9-31.1 31.1 0 9.5 4.2 17.7 10.8 23.5l-42 126.1h24.9l8.4-24.9h58.2l8.2 24.9h24.9l-42-126.1c6.6-5.8 10.9-14 10.9-23.5zm-52 99.7l20.8-62.3 20.8 62.3z"/>
	</symbol>

	<symbol id="room-server-plain" viewBox="110 110 292 292">
		<path fill="currentColor" d="m256 265.4c20.4 0 38.4 4.9 53 11.2 13.5 6 22 19.5 22 34.2v20.2h-150v-20.1c0-14.8 8.5-28.3 22-34.1 14.6-6.5 32.6-11.4 53-11.4zm-100 3.1c13.8 0 25-11.2 25-25 0-13.7-11.2-25-25-25-13.7 0-25 11.3-25 25 0 13.8 11.3 25 25 25zm14.1 13.8c-4.6-0.8-9.2-1.3-14.1-1.3-12.4 0-24.1 2.6-34.7 7.3-9.3 4-15.3 13-15.3 23.1v19.6h56.3v-20.1c0-10.4 2.8-20.1 7.8-28.6zm185.9-13.8c13.8 0 25-11.2 25-25 0-13.8-11.2-25-25-25-13.8 0-25 11.2-25 25 0 13.8 11.2 25 25 25zm50 42.9c0-10.1-6-19.1-15.2-23.1-10.7-4.7-22.4-7.3-34.8-7.3-4.9 0-9.5 0.5-14.1 1.3 5 8.5 7.8 18.2 7.8 28.6v20.1h56.3zm-150-130.4c20.8 0 37.5 16.8 37.5 37.5 0 20.8-16.8 37.5-37.5 37.5-20.7 0-37.5-16.7-37.5-37.5 0-20.7 16.8-37.5 37.5-37.5z"/>
	</symbol>

	<symbol id="sensor-plain" viewBox="110 110 292 292">
		<path fill="currentColor" d="m381 242.1v-27.8h-27.8v-27.7c0-15.3-12.5-27.8-27.8-27.8h-27.7v-27.8h-27.8v27.8h-27.8v-27.8h-27.8v27.8h-27.7c-15.3 0-27.8 12.5-27.8 27.8v27.7h-27.8v27.8h27.8v27.8h-27.8v27.8h27.8v27.7c0 15.3 12.5 27.8 27.8 27.8h27.7v27.8h27.8v-27.8h27.8v27.8h27.8v-27.8h27.7c15.3 0 27.8-12.5 27.8-27.8v-27.7h27.8v-27.8h-27.8v-27.8zm-55.5 83.3h-138.9v-138.8h138.9zm-27.8-111.2h-83.3v83.4h83.3zm-27.8 55.5h-27.8v-27.7h27.8z"/>
	</symbol>
</svg>
